<?xml version="1.0" encoding="utf-8" standalone="no"?>
<!DOCTYPE svg PUBLIC "-//W3C//DTD SVG 1.1//EN"
  "http://www.w3.org/Graphics/SVG/1.1/DTD/svg11.dtd">
<svg xmlns:xlink="http://www.w3.org/1999/xlink" width="715.57pt" height="34.19pt" viewBox="0 0 715.57 34.19" xmlns="http://www.w3.org/2000/svg" version="1.1">
 <metadata>
  <rdf:RDF xmlns:dc="http://purl.org/dc/elements/1.1/" xmlns:cc="http://creativecommons.org/ns#" xmlns:rdf="http://www.w3.org/1999/02/22-rdf-syntax-ns#">
   <cc:Work>
    <dc:type rdf:resource="http://purl.org/dc/dcmitype/StillImage"/>
    <dc:date>2026-07-04T13:40:49.383756</dc:date>
    <dc:format>image/svg+xml</dc:format>
    <dc:creator>
     <cc:Agent>
      <dc:title>Matplotlib v3.10.7, https://matplotlib.org/</dc:title>
     </cc:Agent>
    </dc:creator>
   </cc:Work>
  </rdf:RDF>
 </metadata>
 <defs>
  <style type="text/css">*{stroke-linejoin: round; stroke-linecap: butt}</style>
 </defs>
 <g id="figure_1">
  <g id="patch_1">
   <path d="M 0 34.19 
L 715.57 34.19 
L 715.57 0 
L 0 0 
L 0 34.19 
z
" style="fill: none"/>
  </g>
  <g id="text_1">
   <!-- $k(\mathbf{x},\mathbf{x}')=C_1\,k_{\mathrm{Lineal}}(\mathbf{x},\mathbf{x}')+C_2\,k_{\mathrm{Matern}\,5/2}(\mathbf{x},\mathbf{x}')+k_{\mathrm{White}}(\mathbf{x},\mathbf{x}')$ -->
   <g style="fill: #1f2933" transform="translate(1.44 26.022031) scale(0.31 -0.31)">
    <defs>
     <path id="STIXGeneral-Italic-6b" d="M 2950 2739 
L 2950 2637 
Q 2720 2624 2464 2448 
Q 2208 2272 1510 1651 
L 1747 1088 
Q 2099 262 2266 262 
Q 2400 262 2554 531 
Q 2586 582 2650 698 
L 2746 627 
Q 2522 224 2374 77 
Q 2227 -70 2035 -70 
Q 1894 -70 1782 42 
Q 1670 154 1517 454 
Q 1325 826 1133 1357 
L 877 1152 
L 570 0 
L 90 0 
L 992 3379 
Q 1082 3699 1107 3942 
Q 1088 4096 781 4096 
L 666 4096 
L 666 4198 
Q 1146 4256 1670 4371 
L 1709 4333 
L 941 1414 
L 1216 1626 
Q 2131 2330 2131 2522 
Q 2131 2637 1894 2637 
L 1805 2637 
L 1805 2739 
L 2950 2739 
z
" transform="scale(0.015625)"/>
     <path id="STIXGeneral-Regular-28" d="M 1946 -1030 
L 1869 -1133 
Q 1126 -710 716 32 
Q 307 774 307 1613 
Q 307 3386 1888 4326 
L 1946 4224 
Q 1293 3667 1075 3126 
Q 858 2586 858 1632 
Q 858 685 1082 96 
Q 1306 -493 1946 -1030 
z
" transform="scale(0.015625)"/>
     <path id="STIXGeneral-Bold-78" d="M 3098 0 
L 1555 0 
L 1555 154 
Q 1843 173 1843 282 
Q 1843 384 1632 691 
Q 1485 896 1363 1094 
Q 1350 1082 1315 1037 
Q 1280 992 1261 966 
Q 851 474 851 307 
Q 851 173 1171 154 
L 1171 0 
L 90 0 
L 90 154 
Q 269 166 406 278 
Q 544 390 813 749 
L 1088 1107 
Q 1120 1146 1136 1168 
Q 1152 1190 1158 1196 
Q 1165 1203 1181 1225 
Q 1197 1248 1229 1286 
L 410 2547 
Q 314 2694 256 2736 
Q 198 2778 77 2797 
L 77 2950 
L 1677 2950 
L 1677 2797 
Q 1376 2790 1376 2675 
Q 1376 2534 1747 2048 
Q 1811 1971 1830 1939 
L 2061 2234 
Q 2304 2547 2304 2643 
Q 2304 2714 2259 2742 
Q 2214 2771 2106 2784 
L 1978 2797 
L 1978 2950 
L 3053 2950 
L 3053 2797 
Q 2771 2752 2605 2547 
L 1958 1741 
L 2906 282 
Q 2957 198 3098 154 
L 3098 0 
z
" transform="scale(0.015625)"/>
     <path id="STIXGeneral-Regular-2c" d="M 531 -902 
L 467 -781 
Q 998 -422 998 -96 
Q 998 -13 909 -13 
Q 883 -13 822 -25 
Q 762 -38 723 -38 
Q 352 -38 352 288 
Q 352 454 457 553 
Q 563 653 736 653 
Q 954 653 1101 496 
Q 1248 339 1248 96 
Q 1248 -198 1053 -473 
Q 858 -749 531 -902 
z
" transform="scale(0.015625)"/>
     <path id="STIXGeneral-Regular-2032" d="M 480 2630 
L 909 4045 
Q 934 4141 960 4195 
Q 986 4250 1043 4294 
Q 1101 4339 1190 4339 
Q 1274 4339 1322 4278 
Q 1370 4218 1370 4128 
Q 1370 4058 1280 3878 
L 602 2573 
L 480 2630 
z
" transform="scale(0.015625)"/>
     <path id="STIXGeneral-Regular-29" d="M 186 4224 
L 262 4326 
Q 992 3891 1408 3148 
Q 1824 2406 1824 1581 
Q 1824 -166 243 -1133 
L 186 -1030 
Q 845 -486 1059 54 
Q 1274 595 1274 1562 
Q 1274 2534 1059 3120 
Q 845 3706 186 4224 
z
" transform="scale(0.015625)"/>
     <path id="STIXGeneral-Regular-3d" d="M 4077 2048 
L 307 2048 
L 307 2470 
L 4077 2470 
L 4077 2048 
z
M 4077 768 
L 307 768 
L 307 1190 
L 4077 1190 
L 4077 768 
z
" transform="scale(0.015625)"/>
     <path id="STIXGeneral-Italic-43" d="M 4410 4250 
L 4173 2970 
L 4058 2989 
Q 3942 4032 3104 4032 
Q 2406 4032 1830 3411 
Q 1491 3053 1315 2541 
Q 1139 2029 1139 1485 
Q 1139 173 2259 173 
Q 2656 173 2985 339 
Q 3315 506 3725 934 
L 3840 838 
Q 3411 333 2998 109 
Q 2586 -115 2093 -115 
Q 1344 -115 883 329 
Q 422 774 422 1555 
Q 422 2214 748 2812 
Q 1075 3411 1619 3795 
Q 2272 4262 3021 4262 
Q 3462 4262 3770 4154 
Q 3898 4109 4032 4109 
Q 4205 4109 4275 4250 
L 4410 4250 
z
" transform="scale(0.015625)"/>
     <path id="STIXGeneral-Regular-31" d="M 2522 0 
L 755 0 
L 755 96 
Q 1107 115 1235 227 
Q 1363 339 1363 608 
L 1363 3482 
Q 1363 3795 1171 3795 
Q 1082 3795 883 3718 
L 710 3654 
L 710 3744 
L 1856 4326 
L 1914 4307 
L 1914 486 
Q 1914 275 2042 185 
Q 2170 96 2522 96 
L 2522 0 
z
" transform="scale(0.015625)"/>
     <path id="STIXGeneral-Regular-4c" d="M 3827 1114 
L 3520 0 
L 77 0 
L 77 122 
Q 429 141 531 256 
Q 634 371 634 736 
L 634 3494 
Q 634 3872 541 3981 
Q 448 4090 77 4115 
L 77 4237 
L 1888 4237 
L 1888 4115 
Q 1498 4090 1392 3984 
Q 1286 3878 1286 3507 
L 1286 538 
Q 1286 358 1398 304 
Q 1510 250 1862 250 
L 2310 250 
Q 3085 250 3392 640 
Q 3520 813 3661 1114 
L 3827 1114 
z
" transform="scale(0.015625)"/>
     <path id="STIXGeneral-Regular-69" d="M 1152 4045 
Q 1152 3904 1056 3811 
Q 960 3718 819 3718 
Q 685 3718 592 3811 
Q 499 3904 499 4045 
Q 499 4179 595 4275 
Q 691 4371 826 4371 
Q 966 4371 1059 4275 
Q 1152 4179 1152 4045 
z
M 1619 0 
L 102 0 
L 102 96 
Q 435 115 521 211 
Q 608 307 608 666 
L 608 2118 
Q 608 2342 563 2432 
Q 518 2522 397 2522 
Q 243 2522 128 2490 
L 128 2592 
L 1120 2944 
L 1146 2918 
L 1146 672 
Q 1146 314 1226 218 
Q 1306 122 1619 96 
L 1619 0 
z
" transform="scale(0.015625)"/>
     <path id="STIXGeneral-Regular-6e" d="M 3104 0 
L 1773 0 
L 1779 96 
Q 2016 115 2096 233 
Q 2176 352 2176 672 
L 2176 1946 
Q 2176 2592 1709 2592 
Q 1549 2592 1408 2515 
Q 1267 2438 1050 2227 
L 1050 461 
Q 1050 269 1136 192 
Q 1222 115 1466 96 
L 1466 0 
L 115 0 
L 115 96 
Q 358 115 435 214 
Q 512 314 512 602 
L 512 2157 
Q 512 2394 467 2483 
Q 422 2573 288 2573 
Q 160 2573 102 2547 
L 102 2656 
Q 550 2784 979 2944 
L 1030 2925 
L 1030 2426 
L 1037 2426 
Q 1491 2944 1958 2944 
Q 2323 2944 2518 2688 
Q 2714 2432 2714 1958 
L 2714 544 
Q 2714 288 2790 205 
Q 2867 122 3104 96 
L 3104 0 
z
" transform="scale(0.015625)"/>
     <path id="STIXGeneral-Regular-65" d="M 2611 1050 
L 2714 1005 
Q 2330 -64 1376 -64 
Q 813 -64 486 329 
Q 160 723 160 1389 
Q 160 2074 525 2509 
Q 890 2944 1485 2944 
Q 2061 2944 2374 2502 
Q 2560 2246 2592 1773 
L 621 1773 
Q 646 1370 700 1158 
Q 755 947 915 730 
Q 1184 378 1626 378 
Q 1939 378 2153 531 
Q 2368 685 2611 1050 
z
M 634 1978 
L 1939 1978 
Q 1882 2381 1750 2547 
Q 1619 2714 1312 2714 
Q 1043 2714 864 2525 
Q 685 2336 634 1978 
z
" transform="scale(0.015625)"/>
     <path id="STIXGeneral-Regular-61" d="M 2829 422 
L 2829 243 
Q 2586 -64 2253 -64 
Q 1888 -64 1843 403 
L 1837 403 
Q 1427 -64 909 -64 
Q 608 -64 422 112 
Q 237 288 237 602 
Q 237 1050 685 1350 
Q 992 1555 1837 1869 
L 1837 2214 
Q 1837 2502 1699 2646 
Q 1562 2790 1338 2790 
Q 1146 2790 1018 2697 
Q 890 2605 890 2477 
Q 890 2419 909 2348 
Q 928 2278 928 2208 
Q 928 2112 841 2029 
Q 755 1946 634 1946 
Q 525 1946 441 2029 
Q 358 2112 358 2240 
Q 358 2547 685 2752 
Q 986 2944 1421 2944 
Q 1939 2944 2176 2656 
Q 2291 2522 2323 2384 
Q 2355 2246 2355 1946 
L 2355 723 
Q 2355 301 2554 301 
Q 2682 301 2829 422 
z
M 1837 813 
L 1837 1715 
Q 1248 1510 1018 1293 
Q 800 1094 800 800 
Q 800 557 921 432 
Q 1043 307 1242 307 
Q 1453 307 1613 410 
Q 1747 506 1792 589 
Q 1837 672 1837 813 
z
" transform="scale(0.015625)"/>
     <path id="STIXGeneral-Regular-6c" d="M 1645 0 
L 134 0 
L 134 96 
Q 435 122 531 221 
Q 627 320 627 589 
L 627 3590 
Q 627 3821 569 3910 
Q 512 4000 358 4000 
Q 224 4000 122 3987 
L 122 4090 
Q 730 4237 1133 4371 
L 1165 4346 
L 1165 557 
Q 1165 288 1254 201 
Q 1344 115 1645 96 
L 1645 0 
z
" transform="scale(0.015625)"/>
     <path id="STIXGeneral-Regular-2b" d="M 4070 1408 
L 2400 1408 
L 2400 -262 
L 1978 -262 
L 1978 1408 
L 307 1408 
L 307 1830 
L 1978 1830 
L 1978 3501 
L 2400 3501 
L 2400 1830 
L 4070 1830 
L 4070 1408 
z
" transform="scale(0.015625)"/>
     <path id="STIXGeneral-Regular-32" d="M 3034 877 
L 2688 0 
L 186 0 
L 186 77 
L 1325 1286 
Q 1773 1754 1965 2144 
Q 2157 2534 2157 2950 
Q 2157 3379 1920 3616 
Q 1683 3853 1267 3853 
Q 922 3853 720 3673 
Q 518 3494 326 3021 
L 192 3053 
Q 301 3648 630 3987 
Q 960 4326 1523 4326 
Q 2054 4326 2380 4006 
Q 2707 3686 2707 3200 
Q 2707 2477 1888 1613 
L 832 486 
L 2330 486 
Q 2541 486 2665 569 
Q 2790 653 2944 915 
L 3034 877 
z
" transform="scale(0.015625)"/>
     <path id="STIXGeneral-Regular-4d" d="M 5530 0 
L 3738 0 
L 3738 122 
Q 4115 147 4214 265 
Q 4314 384 4314 787 
L 4314 3661 
L 2682 0 
L 2592 0 
L 979 3514 
L 979 966 
Q 979 448 1088 294 
Q 1197 141 1574 122 
L 1574 0 
L 77 0 
L 77 122 
Q 358 141 480 205 
Q 602 269 650 432 
Q 698 595 698 966 
L 698 3514 
Q 698 3878 589 3984 
Q 480 4090 90 4115 
L 90 4237 
L 1357 4237 
L 2835 1024 
L 4250 4237 
L 5523 4237 
L 5523 4115 
Q 5178 4109 5072 3993 
Q 4966 3878 4966 3520 
L 4966 717 
Q 4966 378 5072 262 
Q 5178 147 5530 122 
L 5530 0 
z
" transform="scale(0.015625)"/>
     <path id="STIXGeneral-Regular-74" d="M 1702 493 
L 1786 422 
Q 1478 -64 1011 -64 
Q 448 -64 448 749 
L 448 2675 
L 109 2675 
Q 83 2694 83 2720 
Q 83 2771 192 2842 
Q 435 2982 813 3526 
Q 826 3546 874 3606 
Q 922 3667 941 3706 
Q 986 3706 986 3622 
L 986 2880 
L 1632 2880 
L 1632 2675 
L 986 2675 
L 986 845 
Q 986 538 1062 403 
Q 1139 269 1318 269 
Q 1510 269 1702 493 
z
" transform="scale(0.015625)"/>
     <path id="STIXGeneral-Regular-72" d="M 1024 2931 
L 1024 2342 
Q 1267 2688 1430 2816 
Q 1594 2944 1792 2944 
Q 1958 2944 2051 2854 
Q 2144 2765 2144 2605 
Q 2144 2470 2077 2393 
Q 2010 2317 1894 2317 
Q 1773 2317 1638 2445 
Q 1536 2541 1472 2541 
Q 1338 2541 1181 2355 
Q 1024 2170 1024 2016 
L 1024 576 
Q 1024 301 1133 205 
Q 1242 109 1568 96 
L 1568 0 
L 32 0 
L 32 96 
Q 339 154 412 224 
Q 486 294 486 538 
L 486 2138 
Q 486 2349 438 2435 
Q 390 2522 269 2522 
Q 166 2522 45 2496 
L 45 2598 
Q 448 2726 992 2944 
L 1024 2931 
z
" transform="scale(0.015625)"/>
     <path id="STIXGeneral-Regular-35" d="M 2803 4358 
L 2573 3814 
Q 2534 3731 2400 3731 
L 1158 3731 
L 902 3187 
Q 1606 3053 1920 2896 
Q 2234 2739 2502 2368 
Q 2726 2061 2726 1555 
Q 2726 1094 2576 780 
Q 2426 467 2099 224 
Q 1664 -90 1011 -90 
Q 646 -90 422 19 
Q 198 128 198 307 
Q 198 550 486 550 
Q 717 550 960 352 
Q 1210 147 1414 147 
Q 1747 147 2012 480 
Q 2278 813 2278 1229 
Q 2278 1843 1850 2189 
Q 1293 2637 486 2637 
Q 410 2637 410 2688 
L 416 2720 
L 1114 4237 
L 2438 4237 
Q 2547 4237 2608 4269 
Q 2669 4301 2746 4403 
L 2803 4358 
z
" transform="scale(0.015625)"/>
     <path id="STIXGeneral-Regular-2f" d="M 1837 4326 
L 378 -90 
L -58 -90 
L 1408 4326 
L 1837 4326 
z
" transform="scale(0.015625)"/>
     <path id="STIXGeneral-Regular-57" d="M 5965 4237 
L 5965 4115 
Q 5709 4064 5616 3990 
Q 5523 3917 5434 3667 
Q 4704 1709 4128 -70 
L 4032 -70 
Q 3642 1011 3008 2637 
L 2022 -70 
L 1926 -70 
Q 1709 576 1277 1753 
Q 845 2931 698 3347 
Q 538 3808 406 3958 
Q 275 4109 32 4115 
L 32 4237 
L 1594 4237 
L 1594 4115 
Q 1357 4109 1270 4064 
Q 1184 4019 1184 3917 
Q 1184 3808 1254 3616 
L 2176 1210 
L 2842 3021 
L 2662 3501 
Q 2509 3917 2400 4013 
Q 2291 4109 2010 4115 
L 2010 4237 
L 3706 4237 
L 3706 4115 
Q 3213 4102 3213 3891 
Q 3213 3808 3322 3520 
L 4237 1190 
L 5043 3360 
Q 5152 3667 5152 3853 
Q 5152 4109 4704 4115 
L 4704 4237 
L 5965 4237 
z
" transform="scale(0.015625)"/>
     <path id="STIXGeneral-Regular-68" d="M 3117 0 
L 1760 0 
L 1760 96 
Q 2042 128 2118 224 
Q 2195 320 2195 653 
L 2195 1920 
Q 2195 2598 1722 2598 
Q 1530 2598 1370 2508 
Q 1210 2419 1005 2195 
L 1005 653 
Q 1005 320 1081 224 
Q 1158 128 1440 96 
L 1440 0 
L 58 0 
L 58 96 
Q 333 134 400 224 
Q 467 314 467 653 
L 467 3667 
Q 467 3872 406 3933 
Q 346 3994 141 3994 
Q 83 3994 64 3987 
L 64 4090 
L 237 4141 
Q 730 4288 973 4371 
L 1005 4352 
L 1005 2406 
Q 1229 2694 1446 2819 
Q 1664 2944 1946 2944 
Q 2733 2944 2733 1926 
L 2733 653 
Q 2733 320 2793 233 
Q 2854 147 3117 96 
L 3117 0 
z
" transform="scale(0.015625)"/>
    </defs>
    <use xlink:href="#STIXGeneral-Italic-6b" transform="translate(0 0.267188)"/>
    <use xlink:href="#STIXGeneral-Regular-28" transform="translate(44.399994 0.267188)"/>
    <use xlink:href="#STIXGeneral-Bold-78" transform="translate(77.699982 0.267188)"/>
    <use xlink:href="#STIXGeneral-Regular-2c" transform="translate(127.699966 0.267188)"/>
    <use xlink:href="#STIXGeneral-Bold-78" transform="translate(167.139948 0.267188)"/>
    <use xlink:href="#STIXGeneral-Regular-2032" transform="translate(218.683214 35.542188) scale(0.7)"/>
    <use xlink:href="#STIXGeneral-Regular-29" transform="translate(243.322584 0.267188)"/>
    <use xlink:href="#STIXGeneral-Regular-3d" transform="translate(291.062568 0.267188)"/>
    <use xlink:href="#STIXGeneral-Italic-43" transform="translate(374.002549 0.267188)"/>
    <use xlink:href="#STIXGeneral-Regular-31" transform="translate(440.702546 -12.960938) scale(0.7)"/>
    <use xlink:href="#STIXGeneral-Italic-6b" transform="translate(492.145482 0.267188)"/>
    <use xlink:href="#STIXGeneral-Regular-4c" transform="translate(536.545476 -12.960938) scale(0.7)"/>
    <use xlink:href="#STIXGeneral-Regular-69" transform="translate(579.315469 -12.960938) scale(0.7)"/>
    <use xlink:href="#STIXGeneral-Regular-6e" transform="translate(598.775461 -12.960938) scale(0.7)"/>
    <use xlink:href="#STIXGeneral-Regular-65" transform="translate(633.77545 -12.960938) scale(0.7)"/>
    <use xlink:href="#STIXGeneral-Regular-61" transform="translate(664.855446 -12.960938) scale(0.7)"/>
    <use xlink:href="#STIXGeneral-Regular-6c" transform="translate(695.935441 -12.960938) scale(0.7)"/>
    <use xlink:href="#STIXGeneral-Regular-28" transform="translate(719.804808 0.267188)"/>
    <use xlink:href="#STIXGeneral-Bold-78" transform="translate(753.104796 0.267188)"/>
    <use xlink:href="#STIXGeneral-Regular-2c" transform="translate(803.10478 0.267188)"/>
    <use xlink:href="#STIXGeneral-Bold-78" transform="translate(842.544761 0.267188)"/>
    <use xlink:href="#STIXGeneral-Regular-2032" transform="translate(894.088027 35.542188) scale(0.7)"/>
    <use xlink:href="#STIXGeneral-Regular-29" transform="translate(918.727398 0.267188)"/>
    <use xlink:href="#STIXGeneral-Regular-2b" transform="translate(966.467382 0.267188)"/>
    <use xlink:href="#STIXGeneral-Italic-43" transform="translate(1049.407363 0.267188)"/>
    <use xlink:href="#STIXGeneral-Regular-32" transform="translate(1116.10736 -12.960938) scale(0.7)"/>
    <use xlink:href="#STIXGeneral-Italic-6b" transform="translate(1167.550296 0.267188)"/>
    <use xlink:href="#STIXGeneral-Regular-4d" transform="translate(1211.950289 -12.960938) scale(0.7)"/>
    <use xlink:href="#STIXGeneral-Regular-61" transform="translate(1274.180285 -12.960938) scale(0.7)"/>
    <use xlink:href="#STIXGeneral-Regular-74" transform="translate(1305.260281 -12.960938) scale(0.7)"/>
    <use xlink:href="#STIXGeneral-Regular-65" transform="translate(1324.720272 -12.960938) scale(0.7)"/>
    <use xlink:href="#STIXGeneral-Regular-72" transform="translate(1355.800268 -12.960938) scale(0.7)"/>
    <use xlink:href="#STIXGeneral-Regular-6e" transform="translate(1379.11026 -12.960938) scale(0.7)"/>
    <use xlink:href="#STIXGeneral-Regular-35" transform="translate(1422.533749 -12.960938) scale(0.7)"/>
    <use xlink:href="#STIXGeneral-Regular-2f" transform="translate(1457.533738 -12.960938) scale(0.7)"/>
    <use xlink:href="#STIXGeneral-Regular-32" transform="translate(1476.993729 -12.960938) scale(0.7)"/>
    <use xlink:href="#STIXGeneral-Regular-28" transform="translate(1516.403094 0.267188)"/>
    <use xlink:href="#STIXGeneral-Bold-78" transform="translate(1549.703081 0.267188)"/>
    <use xlink:href="#STIXGeneral-Regular-2c" transform="translate(1599.703066 0.267188)"/>
    <use xlink:href="#STIXGeneral-Bold-78" transform="translate(1639.143047 0.267188)"/>
    <use xlink:href="#STIXGeneral-Regular-2032" transform="translate(1690.686313 35.542188) scale(0.7)"/>
    <use xlink:href="#STIXGeneral-Regular-29" transform="translate(1715.325684 0.267188)"/>
    <use xlink:href="#STIXGeneral-Regular-2b" transform="translate(1763.065668 0.267188)"/>
    <use xlink:href="#STIXGeneral-Italic-6b" transform="translate(1846.005649 0.267188)"/>
    <use xlink:href="#STIXGeneral-Regular-57" transform="translate(1890.405643 -12.960938) scale(0.7)"/>
    <use xlink:href="#STIXGeneral-Regular-68" transform="translate(1956.485639 -12.960938) scale(0.7)"/>
    <use xlink:href="#STIXGeneral-Regular-69" transform="translate(1991.485628 -12.960938) scale(0.7)"/>
    <use xlink:href="#STIXGeneral-Regular-74" transform="translate(2010.94562 -12.960938) scale(0.7)"/>
    <use xlink:href="#STIXGeneral-Regular-65" transform="translate(2030.405611 -12.960938) scale(0.7)"/>
    <use xlink:href="#STIXGeneral-Regular-28" transform="translate(2065.894982 0.267188)"/>
    <use xlink:href="#STIXGeneral-Bold-78" transform="translate(2099.19497 0.267188)"/>
    <use xlink:href="#STIXGeneral-Regular-2c" transform="translate(2149.194954 0.267188)"/>
    <use xlink:href="#STIXGeneral-Bold-78" transform="translate(2188.634935 0.267188)"/>
    <use xlink:href="#STIXGeneral-Regular-2032" transform="translate(2240.178201 35.542188) scale(0.7)"/>
    <use xlink:href="#STIXGeneral-Regular-29" transform="translate(2264.817572 0.267188)"/>
   </g>
  </g>
 </g>
</svg>
