<?xml version="1.0" encoding="utf-8" standalone="no"?>
<!DOCTYPE svg PUBLIC "-//W3C//DTD SVG 1.1//EN"
  "http://www.w3.org/Graphics/SVG/1.1/DTD/svg11.dtd">
<svg xmlns:xlink="http://www.w3.org/1999/xlink" width="460.8pt" height="313.2pt" viewBox="0 0 460.8 313.2" xmlns="http://www.w3.org/2000/svg" version="1.1">
 <metadata>
  <rdf:RDF xmlns:dc="http://purl.org/dc/elements/1.1/" xmlns:cc="http://creativecommons.org/ns#" xmlns:rdf="http://www.w3.org/1999/02/22-rdf-syntax-ns#">
   <cc:Work>
    <dc:type rdf:resource="http://purl.org/dc/dcmitype/StillImage"/>
    <dc:date>2026-07-04T02:38:16.440086</dc:date>
    <dc:format>image/svg+xml</dc:format>
    <dc:creator>
     <cc:Agent>
      <dc:title>Matplotlib v3.10.7, https://matplotlib.org/</dc:title>
     </cc:Agent>
    </dc:creator>
   </cc:Work>
  </rdf:RDF>
 </metadata>
 <defs>
  <style type="text/css">*{stroke-linejoin: round; stroke-linecap: butt}</style>
 </defs>
 <g id="figure_1">
  <g id="patch_1">
   <path d="M 0 313.2 
L 460.8 313.2 
L 460.8 0 
L 0 0 
L 0 313.2 
z
" style="fill: none"/>
  </g>
  <g id="axes_1">
   <g id="FillBetweenPolyCollection_1">
    <defs>
     <path id="m47eeb83645" d="M 39.354092 -253.873852 
L 39.354092 -164.196408 
L 40.359066 -166.036504 
L 41.36404 -167.876515 
L 42.369014 -169.715283 
L 43.373988 -171.551613 
L 44.378962 -173.384282 
L 45.383936 -175.212028 
L 46.38891 -177.033555 
L 47.393884 -178.847524 
L 48.398858 -180.652556 
L 49.403832 -182.447218 
L 50.408806 -184.230026 
L 51.41378 -185.999427 
L 52.418754 -187.753795 
L 53.423728 -189.49141 
L 54.428702 -191.21044 
L 55.433676 -192.908912 
L 56.43865 -194.584675 
L 57.443624 -196.235347 
L 58.448598 -197.858242 
L 59.453572 -199.450265 
L 60.458546 -201.007771 
L 61.46352 -202.526347 
L 62.468494 -204.000505 
L 63.473468 -205.423218 
L 64.478442 -206.785244 
L 65.483416 -208.074127 
L 66.48839 -209.272795 
L 67.493364 -210.357786 
L 68.498338 -211.297603 
L 69.503312 -212.052854 
L 70.508285 -212.581499 
L 71.513259 -212.851889 
L 72.518233 -212.858695 
L 73.523207 -212.628109 
L 74.528181 -212.206342 
L 75.533155 -211.642599 
L 76.538129 -210.97857 
L 77.543103 -210.245771 
L 78.548077 -209.466853 
L 79.553051 -208.657858 
L 80.558025 -207.830195 
L 81.562999 -206.992101 
L 82.567973 -206.14963 
L 83.572947 -205.307329 
L 84.577921 -204.46868 
L 85.582895 -203.636403 
L 86.587869 -202.81266 
L 87.592843 -201.999198 
L 88.597817 -201.197447 
L 89.602791 -200.408592 
L 90.607765 -199.633621 
L 91.612739 -198.873364 
L 92.617713 -198.128522 
L 93.622687 -197.399683 
L 94.627661 -196.687341 
L 95.632635 -195.991907 
L 96.637609 -195.313718 
L 97.642583 -194.653043 
L 98.647557 -194.010089 
L 99.652531 -193.385007 
L 100.657505 -192.777893 
L 101.662479 -192.18879 
L 102.667453 -191.617693 
L 103.672427 -191.064551 
L 104.677401 -190.529263 
L 105.682375 -190.011685 
L 106.687349 -189.511629 
L 107.692322 -189.02886 
L 108.697296 -188.563104 
L 109.70227 -188.114039 
L 110.707244 -187.681304 
L 111.712218 -187.264492 
L 112.717192 -186.863153 
L 113.722166 -186.476794 
L 114.72714 -186.104874 
L 115.732114 -185.746809 
L 116.737088 -185.401965 
L 117.742062 -185.06966 
L 118.747036 -184.749158 
L 119.75201 -184.439666 
L 120.756984 -184.140332 
L 121.761958 -183.850237 
L 122.766932 -183.568384 
L 123.771906 -183.293695 
L 124.77688 -183.024992 
L 125.781854 -182.760979 
L 126.786828 -182.500223 
L 127.791802 -182.241121 
L 128.796776 -181.981854 
L 129.80175 -181.72034 
L 130.806724 -181.454146 
L 131.811698 -181.180389 
L 132.816672 -180.895585 
L 133.821646 -180.595444 
L 134.82662 -180.274577 
L 135.831594 -179.926091 
L 136.836568 -179.541034 
L 137.841542 -179.107659 
L 138.846516 -178.610537 
L 139.85149 -178.029705 
L 140.856464 -177.340365 
L 141.861438 -176.51419 
L 142.866412 -175.523465 
L 143.871386 -174.348109 
L 144.87636 -172.982557 
L 145.881333 -171.437677 
L 146.886307 -169.736252 
L 147.891281 -167.90563 
L 148.896255 -165.971965 
L 149.901229 -163.957491 
L 150.906203 -161.880032 
L 151.911177 -159.753548 
L 152.916151 -157.588956 
L 153.921125 -155.394893 
L 154.926099 -153.178319 
L 155.931073 -150.944976 
L 156.936047 -148.699709 
L 157.941021 -146.446706 
L 158.945995 -144.189665 
L 159.950969 -141.931912 
L 160.955943 -139.676494 
L 161.960917 -137.426239 
L 162.965891 -135.183801 
L 163.970865 -132.951698 
L 164.975839 -130.732337 
L 165.980813 -128.528033 
L 166.985787 -126.341022 
L 167.990761 -124.173472 
L 168.995735 -122.027494 
L 170.000709 -119.905146 
L 171.005683 -117.808436 
L 172.010657 -115.739327 
L 173.015631 -113.699741 
L 174.020605 -111.691557 
L 175.025579 -109.716615 
L 176.030553 -107.776715 
L 177.035527 -105.873617 
L 178.040501 -104.009043 
L 179.045475 -102.184673 
L 180.050449 -100.402149 
L 181.055423 -98.66307 
L 182.060397 -96.968996 
L 183.065371 -95.32144 
L 184.070344 -93.721877 
L 185.075318 -92.171733 
L 186.080292 -90.672391 
L 187.085266 -89.225186 
L 188.09024 -87.831408 
L 189.095214 -86.492295 
L 190.100188 -85.209038 
L 191.105162 -83.982777 
L 192.110136 -82.814597 
L 193.11511 -81.705535 
L 194.120084 -80.656571 
L 195.125058 -79.668629 
L 196.130032 -78.742581 
L 197.135006 -77.879239 
L 198.13998 -77.079358 
L 199.144954 -76.343632 
L 200.149928 -75.672699 
L 201.154902 -75.067133 
L 202.159876 -74.527446 
L 203.16485 -74.054089 
L 204.169824 -73.647448 
L 205.174798 -73.307842 
L 206.179772 -73.035528 
L 207.184746 -72.830692 
L 208.18972 -72.693453 
L 209.194694 -72.62386 
L 210.199668 -72.62189 
L 211.204642 -72.687447 
L 212.209616 -72.820359 
L 213.21459 -73.020375 
L 214.219564 -73.287167 
L 215.224538 -73.620319 
L 216.229512 -74.019327 
L 217.234486 -74.483595 
L 218.23946 -75.012424 
L 219.244434 -75.605006 
L 220.249408 -76.260413 
L 221.254381 -76.977583 
L 222.259355 -77.755299 
L 223.264329 -78.592169 
L 224.269303 -79.486588 
L 225.274277 -80.436696 
L 226.279251 -81.440314 
L 227.284225 -82.494866 
L 228.289199 -83.597249 
L 229.294173 -84.743673 
L 230.299147 -85.929406 
L 231.304121 -87.148426 
L 232.309095 -88.392894 
L 233.314069 -89.652397 
L 234.319043 -90.912878 
L 235.324017 -92.155212 
L 236.328991 -93.35362 
L 237.333965 -94.474703 
L 238.338939 -95.479049 
L 239.343913 -96.328194 
L 240.348887 -96.997203 
L 241.353861 -97.48593 
L 242.358835 -97.81899 
L 243.363809 -98.034447 
L 244.368783 -98.171222 
L 245.373757 -98.262154 
L 246.378731 -98.332416 
L 247.383705 -98.400499 
L 248.388679 -98.479806 
L 249.393653 -98.580083 
L 250.398627 -98.7085 
L 251.403601 -98.870402 
L 252.408575 -99.06984 
L 253.413549 -99.309924 
L 254.418523 -99.59307 
L 255.423497 -99.92117 
L 256.428471 -100.295716 
L 257.433445 -100.717879 
L 258.438419 -101.188575 
L 259.443392 -101.708509 
L 260.448366 -102.278207 
L 261.45334 -102.898041 
L 262.458314 -103.56825 
L 263.463288 -104.288953 
L 264.468262 -105.060158 
L 265.473236 -105.881774 
L 266.47821 -106.753619 
L 267.483184 -107.675421 
L 268.488158 -108.646826 
L 269.493132 -109.667401 
L 270.498106 -110.736639 
L 271.50308 -111.853956 
L 272.508054 -113.018703 
L 273.513028 -114.230159 
L 274.518002 -115.487537 
L 275.522976 -116.789987 
L 276.52795 -118.136595 
L 277.532924 -119.526387 
L 278.537898 -120.958328 
L 279.542872 -122.431326 
L 280.547846 -123.944233 
L 281.55282 -125.495845 
L 282.557794 -127.084905 
L 283.562768 -128.710104 
L 284.567742 -130.370081 
L 285.572716 -132.063429 
L 286.57769 -133.788692 
L 287.582664 -135.544369 
L 288.587638 -137.328913 
L 289.592612 -139.140736 
L 290.597586 -140.978208 
L 291.60256 -142.839661 
L 292.607534 -144.723388 
L 293.612508 -146.627645 
L 294.617482 -148.550655 
L 295.622456 -150.490607 
L 296.627429 -152.445658 
L 297.632403 -154.413936 
L 298.637377 -156.393537 
L 299.642351 -158.382534 
L 300.647325 -160.378969 
L 301.652299 -162.38086 
L 302.657273 -164.386202 
L 303.662247 -166.392961 
L 304.667221 -168.399084 
L 305.672195 -170.402488 
L 306.677169 -172.401067 
L 307.682143 -174.392688 
L 308.687117 -176.375187 
L 309.692091 -178.346365 
L 310.697065 -180.303987 
L 311.702039 -182.24577 
L 312.707013 -184.169373 
L 313.711987 -186.072388 
L 314.716961 -187.952318 
L 315.721935 -189.80655 
L 316.726909 -191.632327 
L 317.731883 -193.426697 
L 318.736857 -195.186448 
L 319.741831 -196.908022 
L 320.746805 -198.587384 
L 321.751779 -200.219843 
L 322.756753 -201.799797 
L 323.761727 -203.320354 
L 324.766701 -204.772799 
L 325.771675 -206.145827 
L 326.776649 -207.424503 
L 327.781623 -208.588971 
L 328.786597 -209.613211 
L 329.791571 -210.464815 
L 330.796545 -211.107672 
L 331.801519 -211.509567 
L 332.806493 -211.65341 
L 333.811467 -211.545 
L 334.81644 -211.210402 
L 335.821414 -210.685407 
L 336.826388 -210.005403 
L 337.831362 -209.200194 
L 338.836336 -208.292981 
L 339.84131 -207.301256 
L 340.846284 -206.238159 
L 341.851258 -205.113684 
L 342.856232 -203.935599 
L 343.861206 -202.710105 
L 344.86618 -201.44229 
L 345.871154 -200.136452 
L 346.876128 -198.796315 
L 347.881102 -197.425184 
L 348.886076 -196.026056 
L 349.89105 -194.601695 
L 350.896024 -193.154689 
L 351.900998 -191.687487 
L 352.905972 -190.202437 
L 353.910946 -188.701797 
L 354.91592 -187.187761 
L 355.920894 -185.662465 
L 356.925868 -184.127995 
L 357.930842 -182.586399 
L 358.935816 -181.039687 
L 359.94079 -179.489835 
L 360.945764 -177.93879 
L 361.950738 -176.388466 
L 362.955712 -174.840753 
L 363.960686 -173.297508 
L 364.96566 -171.760561 
L 365.970634 -170.231714 
L 366.975608 -168.71274 
L 367.980582 -167.205378 
L 368.985556 -165.71134 
L 369.99053 -164.232303 
L 370.995504 -162.769911 
L 372.000478 -161.325776 
L 373.005451 -159.901469 
L 374.010425 -158.498527 
L 375.015399 -157.118449 
L 376.020373 -155.762691 
L 377.025347 -154.432671 
L 378.030321 -153.129761 
L 379.035295 -151.855292 
L 380.040269 -150.610546 
L 381.045243 -149.396761 
L 382.050217 -148.215123 
L 383.055191 -147.066771 
L 384.060165 -145.952791 
L 385.065139 -144.874214 
L 386.070113 -143.832018 
L 387.075087 -142.827121 
L 388.080061 -141.860384 
L 389.085035 -140.932605 
L 390.090009 -140.044516 
L 391.094983 -139.196783 
L 392.099957 -138.389997 
L 393.104931 -137.624674 
L 394.109905 -136.901249 
L 395.114879 -136.220063 
L 396.119853 -135.581363 
L 397.124827 -134.985281 
L 398.129801 -134.431827 
L 399.134775 -133.920862 
L 400.139749 -133.452078 
L 401.144723 -133.024956 
L 402.149697 -132.638721 
L 403.154671 -132.292268 
L 404.159645 -131.984067 
L 405.164619 -131.712019 
L 406.169593 -131.473243 
L 407.174567 -131.263762 
L 408.179541 -131.078019 
L 409.184515 -130.908124 
L 410.189488 -130.742675 
L 411.194462 -130.564927 
L 412.199436 -130.350033 
L 413.20441 -130.061373 
L 414.209384 -129.64724 
L 415.214358 -129.042456 
L 416.219332 -128.183036 
L 417.224306 -127.034458 
L 418.22928 -125.611142 
L 419.234254 -123.964803 
L 420.239228 -122.156407 
L 421.244202 -120.23773 
L 422.249176 -118.246901 
L 423.25415 -116.210517 
L 424.259124 -114.146973 
L 425.264098 -112.069172 
L 426.269072 -109.986387 
L 427.274046 -107.905483 
L 428.27902 -105.83169 
L 429.283994 -103.769113 
L 430.288968 -101.72106 
L 431.293942 -99.690264 
L 432.298916 -97.679027 
L 433.30389 -95.689331 
L 434.308864 -93.722902 
L 435.313838 -91.781265 
L 436.318812 -89.865783 
L 437.323786 -87.977682 
L 438.32876 -86.118072 
L 439.333734 -84.287963 
L 440.338708 -82.488276 
L 440.338708 -153.657301 
L 440.338708 -153.657301 
L 439.333734 -152.490898 
L 438.32876 -151.351925 
L 437.323786 -150.241676 
L 436.318812 -149.161486 
L 435.313838 -148.112737 
L 434.308864 -147.096877 
L 433.30389 -146.115434 
L 432.298916 -145.170048 
L 431.293942 -144.262503 
L 430.288968 -143.394778 
L 429.283994 -142.56912 
L 428.27902 -141.788146 
L 427.274046 -141.054988 
L 426.269072 -140.373516 
L 425.264098 -139.748665 
L 424.259124 -139.186942 
L 423.25415 -138.697199 
L 422.249176 -138.291859 
L 421.244202 -137.988771 
L 420.239228 -137.813923 
L 419.234254 -137.804772 
L 418.22928 -138.01236 
L 417.224306 -138.49685 
L 416.219332 -139.309095 
L 415.214358 -140.462588 
L 414.209384 -141.921813 
L 413.20441 -143.621731 
L 412.199436 -145.496045 
L 411.194462 -147.491866 
L 410.189488 -149.571331 
L 409.184515 -151.708285 
L 408.179541 -153.884616 
L 407.174567 -156.087494 
L 406.169593 -158.307541 
L 405.164619 -160.537652 
L 404.159645 -162.772245 
L 403.154671 -165.006777 
L 402.149697 -167.23743 
L 401.144723 -169.4609 
L 400.139749 -171.67426 
L 399.134775 -173.874853 
L 398.129801 -176.060233 
L 397.124827 -178.228114 
L 396.119853 -180.376334 
L 395.114879 -182.50283 
L 394.109905 -184.605623 
L 393.104931 -186.6828 
L 392.099957 -188.73251 
L 391.094983 -190.752951 
L 390.090009 -192.742369 
L 389.085035 -194.699053 
L 388.080061 -196.621332 
L 387.075087 -198.507573 
L 386.070113 -200.356184 
L 385.065139 -202.165607 
L 384.060165 -203.934324 
L 383.055191 -205.660851 
L 382.050217 -207.343747 
L 381.045243 -208.981606 
L 380.040269 -210.573064 
L 379.035295 -212.116797 
L 378.030321 -213.611524 
L 377.025347 -215.056005 
L 376.020373 -216.449047 
L 375.015399 -217.789501 
L 374.010425 -219.076267 
L 373.005451 -220.308291 
L 372.000478 -221.484573 
L 370.995504 -222.60416 
L 369.99053 -223.666156 
L 368.985556 -224.669716 
L 367.980582 -225.614054 
L 366.975608 -226.49844 
L 365.970634 -227.322205 
L 364.96566 -228.084739 
L 363.960686 -228.785498 
L 362.955712 -229.423999 
L 361.950738 -229.999831 
L 360.945764 -230.512648 
L 359.94079 -230.96218 
L 358.935816 -231.348229 
L 357.930842 -231.670677 
L 356.925868 -231.929489 
L 355.920894 -232.124717 
L 354.91592 -232.256505 
L 353.910946 -232.325099 
L 352.905972 -232.330853 
L 351.900998 -232.274241 
L 350.896024 -232.155872 
L 349.89105 -231.976507 
L 348.886076 -231.737084 
L 347.881102 -231.438747 
L 346.876128 -231.082894 
L 345.871154 -230.671228 
L 344.86618 -230.205842 
L 343.861206 -229.689324 
L 342.856232 -229.124917 
L 341.851258 -228.516741 
L 340.846284 -227.870106 
L 339.84131 -227.191979 
L 338.836336 -226.491639 
L 337.831362 -225.781596 
L 336.826388 -225.078804 
L 335.821414 -224.406012 
L 334.81644 -223.792666 
L 333.811467 -223.273884 
L 332.806493 -222.885279 
L 331.801519 -222.652832 
L 330.796545 -222.582348 
L 329.791571 -222.656837 
L 328.786597 -222.844277 
L 327.781623 -223.108842 
L 326.776649 -223.418504 
L 325.771675 -223.747714 
L 324.766701 -224.077178 
L 323.761727 -224.392617 
L 322.756753 -224.683475 
L 321.751779 -224.941873 
L 320.746805 -225.161848 
L 319.741831 -225.338815 
L 318.736857 -225.469189 
L 317.731883 -225.550128 
L 316.726909 -225.579354 
L 315.721935 -225.555018 
L 314.716961 -225.475617 
L 313.711987 -225.339922 
L 312.707013 -225.146932 
L 311.702039 -224.895838 
L 310.697065 -224.585999 
L 309.692091 -224.216915 
L 308.687117 -223.788219 
L 307.682143 -223.29966 
L 306.677169 -222.751096 
L 305.672195 -222.142486 
L 304.667221 -221.473884 
L 303.662247 -220.745432 
L 302.657273 -219.957359 
L 301.652299 -219.109978 
L 300.647325 -218.203679 
L 299.642351 -217.238931 
L 298.637377 -216.216275 
L 297.632403 -215.136328 
L 296.627429 -213.999776 
L 295.622456 -212.807374 
L 294.617482 -211.559947 
L 293.612508 -210.258383 
L 292.607534 -208.903635 
L 291.60256 -207.496721 
L 290.597586 -206.03872 
L 289.592612 -204.530769 
L 288.587638 -202.974066 
L 287.582664 -201.369865 
L 286.57769 -199.719477 
L 285.572716 -198.024266 
L 284.567742 -196.285649 
L 283.562768 -194.505095 
L 282.557794 -192.684121 
L 281.55282 -190.824296 
L 280.547846 -188.927232 
L 279.542872 -186.994588 
L 278.537898 -185.028066 
L 277.532924 -183.029411 
L 276.52795 -181.000408 
L 275.522976 -178.942883 
L 274.518002 -176.858698 
L 273.513028 -174.749753 
L 272.508054 -172.617983 
L 271.50308 -170.465359 
L 270.498106 -168.293884 
L 269.493132 -166.105595 
L 268.488158 -163.90256 
L 267.483184 -161.686881 
L 266.47821 -159.460692 
L 265.473236 -157.226161 
L 264.468262 -154.98549 
L 263.463288 -152.740921 
L 262.458314 -150.494732 
L 261.45334 -148.249252 
L 260.448366 -146.006858 
L 259.443392 -143.769992 
L 258.438419 -141.541169 
L 257.433445 -139.322993 
L 256.428471 -137.118186 
L 255.423497 -134.929614 
L 254.418523 -132.760332 
L 253.413549 -130.613644 
L 252.408575 -128.49319 
L 251.403601 -126.403058 
L 250.398627 -124.34796 
L 249.393653 -122.333472 
L 248.388679 -120.366396 
L 247.383705 -118.455275 
L 246.378731 -116.611158 
L 245.373757 -114.848673 
L 244.368783 -113.187457 
L 243.363809 -111.653751 
L 242.358835 -110.281384 
L 241.353861 -109.110189 
L 240.348887 -108.17906 
L 239.343913 -107.513363 
L 238.338939 -107.113629 
L 237.333965 -106.955514 
L 236.328991 -107.001068 
L 235.324017 -107.211315 
L 234.319043 -107.553213 
L 233.314069 -108.00126 
L 232.309095 -108.536531 
L 231.304121 -109.145094 
L 230.299147 -109.816581 
L 229.294173 -110.543125 
L 228.289199 -111.318596 
L 227.284225 -112.138087 
L 226.279251 -112.997553 
L 225.274277 -113.893568 
L 224.269303 -114.823159 
L 223.264329 -115.783683 
L 222.259355 -116.772745 
L 221.254381 -117.78814 
L 220.249408 -118.827804 
L 219.244434 -119.889791 
L 218.23946 -120.972242 
L 217.234486 -122.073371 
L 216.229512 -123.191454 
L 215.224538 -124.324816 
L 214.219564 -125.471828 
L 213.21459 -126.630897 
L 212.209616 -127.800468 
L 211.204642 -128.979019 
L 210.199668 -130.165057 
L 209.194694 -131.35712 
L 208.18972 -132.553776 
L 207.184746 -133.753622 
L 206.179772 -134.955284 
L 205.174798 -136.157419 
L 204.169824 -137.358714 
L 203.16485 -138.557885 
L 202.159876 -139.753683 
L 201.154902 -140.944889 
L 200.149928 -142.130321 
L 199.144954 -143.308828 
L 198.13998 -144.479298 
L 197.135006 -145.640653 
L 196.130032 -146.791853 
L 195.125058 -147.9319 
L 194.120084 -149.05983 
L 193.11511 -150.174725 
L 192.110136 -151.275705 
L 191.105162 -152.361935 
L 190.100188 -153.432619 
L 189.095214 -154.487011 
L 188.09024 -155.524405 
L 187.085266 -156.544143 
L 186.080292 -157.545613 
L 185.075318 -158.528251 
L 184.070344 -159.491537 
L 183.065371 -160.435005 
L 182.060397 -161.358233 
L 181.055423 -162.260851 
L 180.050449 -163.14254 
L 179.045475 -164.003031 
L 178.040501 -164.842105 
L 177.035527 -165.659598 
L 176.030553 -166.455396 
L 175.025579 -167.229442 
L 174.020605 -167.981732 
L 173.015631 -168.712319 
L 172.010657 -169.421312 
L 171.005683 -170.10888 
L 170.000709 -170.775256 
L 168.995735 -171.420733 
L 167.990761 -172.045674 
L 166.985787 -172.650513 
L 165.980813 -173.235763 
L 164.975839 -173.802018 
L 163.970865 -174.349969 
L 162.965891 -174.880408 
L 161.960917 -175.39425 
L 160.955943 -175.892549 
L 159.950969 -176.376524 
L 158.945995 -176.847597 
L 157.941021 -177.307439 
L 156.936047 -177.758033 
L 155.931073 -178.201761 
L 154.926099 -178.641531 
L 153.921125 -179.080937 
L 152.916151 -179.524503 
L 151.911177 -179.978004 
L 150.906203 -180.448925 
L 149.901229 -180.947064 
L 148.896255 -181.485294 
L 147.891281 -182.080386 
L 146.886307 -182.753555 
L 145.881333 -183.52997 
L 144.87636 -184.436027 
L 143.871386 -185.493587 
L 142.866412 -186.712637 
L 141.861438 -188.086756 
L 140.856464 -189.595046 
L 139.85149 -191.209007 
L 138.846516 -192.899557 
L 137.841542 -194.641179 
L 136.836568 -196.413222 
L 135.831594 -198.199601 
L 134.82662 -199.987946 
L 133.821646 -201.768713 
L 132.816672 -203.534447 
L 131.811698 -205.279232 
L 130.806724 -206.998277 
L 129.80175 -208.687629 
L 128.796776 -210.343965 
L 127.791802 -211.964446 
L 126.786828 -213.546605 
L 125.781854 -215.088274 
L 124.77688 -216.587526 
L 123.771906 -218.042629 
L 122.766932 -219.45202 
L 121.761958 -220.814279 
L 120.756984 -222.12811 
L 119.75201 -223.392328 
L 118.747036 -224.605848 
L 117.742062 -225.767676 
L 116.737088 -226.876904 
L 115.732114 -227.932704 
L 114.72714 -228.934324 
L 113.722166 -229.881085 
L 112.717192 -230.772376 
L 111.712218 -231.607656 
L 110.707244 -232.386451 
L 109.70227 -233.108348 
L 108.697296 -233.773003 
L 107.692322 -234.38013 
L 106.687349 -234.92951 
L 105.682375 -235.420983 
L 104.677401 -235.854452 
L 103.672427 -236.229881 
L 102.667453 -236.547296 
L 101.662479 -236.806785 
L 100.657505 -237.008499 
L 99.652531 -237.152654 
L 98.647557 -237.239528 
L 97.642583 -237.269467 
L 96.637609 -237.242887 
L 95.632635 -237.160272 
L 94.627661 -237.022186 
L 93.622687 -236.829271 
L 92.617713 -236.582256 
L 91.612739 -236.281967 
L 90.607765 -235.929335 
L 89.602791 -235.525416 
L 88.597817 -235.071407 
L 87.592843 -234.568672 
L 86.587869 -234.018785 
L 85.582895 -233.423574 
L 84.577921 -232.785193 
L 83.572947 -232.106222 
L 82.567973 -231.389808 
L 81.562999 -230.639869 
L 80.558025 -229.861395 
L 79.553051 -229.060893 
L 78.548077 -228.247059 
L 77.543103 -227.43177 
L 76.538129 -226.631544 
L 75.533155 -225.869512 
L 74.528181 -225.177679 
L 73.523207 -224.59823 
L 72.518233 -224.180872 
L 71.513259 -223.972322 
L 70.508285 -223.999283 
L 69.503312 -224.256944 
L 68.498338 -224.714177 
L 67.493364 -225.329471 
L 66.48839 -226.063965 
L 65.483416 -226.886696 
L 64.478442 -227.774741 
L 63.473468 -228.711571 
L 62.468494 -229.685277 
L 61.46352 -230.687164 
L 60.458546 -231.710759 
L 59.453572 -232.751127 
L 58.448598 -233.804412 
L 57.443624 -234.867526 
L 56.43865 -235.937936 
L 55.433676 -237.013517 
L 54.428702 -238.092449 
L 53.423728 -239.173145 
L 52.418754 -240.254197 
L 51.41378 -241.334338 
L 50.408806 -242.412412 
L 49.403832 -243.487358 
L 48.398858 -244.558189 
L 47.393884 -245.623983 
L 46.38891 -246.683872 
L 45.383936 -247.737037 
L 44.378962 -248.782701 
L 43.373988 -249.820126 
L 42.369014 -250.848609 
L 41.36404 -251.86748 
L 40.359066 -252.876097 
L 39.354092 -253.873852 
z
"/>
    </defs>
    <g clip-path="url(#p058bcebaaa)">
     <use xlink:href="#m47eeb83645" x="0" y="313.2" style="fill: #c9822b; fill-opacity: 0.2"/>
    </g>
   </g>
  </g>
 </g>
 <defs>
  <clipPath id="p058bcebaaa">
   <rect x="31.3344" y="10.962" width="417.024" height="269.352"/>
  </clipPath>
 </defs>
</svg>
