<?xml version="1.0" encoding="utf-8" standalone="no"?>
<!DOCTYPE svg PUBLIC "-//W3C//DTD SVG 1.1//EN"
  "http://www.w3.org/Graphics/SVG/1.1/DTD/svg11.dtd">
<svg xmlns:xlink="http://www.w3.org/1999/xlink" width="21.92pt" height="33.48pt" viewBox="0 0 21.92 33.48" xmlns="http://www.w3.org/2000/svg" version="1.1">
 <metadata>
  <rdf:RDF xmlns:dc="http://purl.org/dc/elements/1.1/" xmlns:cc="http://creativecommons.org/ns#" xmlns:rdf="http://www.w3.org/1999/02/22-rdf-syntax-ns#">
   <cc:Work>
    <dc:type rdf:resource="http://purl.org/dc/dcmitype/StillImage"/>
    <dc:date>2026-07-02T14:40:27.671582</dc:date>
    <dc:format>image/svg+xml</dc:format>
    <dc:creator>
     <cc:Agent>
      <dc:title>Matplotlib v3.10.7, https://matplotlib.org/</dc:title>
     </cc:Agent>
    </dc:creator>
   </cc:Work>
  </rdf:RDF>
 </metadata>
 <defs>
  <style type="text/css">*{stroke-linejoin: round; stroke-linecap: butt}</style>
 </defs>
 <g id="figure_1">
  <g id="patch_1">
   <path d="M 0 33.48 
L 21.92 33.48 
L 21.92 0 
L 0 0 
L 0 33.48 
z
" style="fill: none"/>
  </g>
  <g id="text_1">
   <!-- $Y$ -->
   <g style="fill: #1f2933" transform="translate(1.44 24.660937) scale(0.34 -0.34)">
    <defs>
     <path id="STIXGeneral-Italic-59" d="M 4051 4179 
L 4051 4077 
Q 3917 4032 3846 3965 
Q 3776 3898 3603 3686 
L 2202 1958 
L 1971 1171 
Q 1779 512 1779 358 
Q 1779 237 1852 185 
Q 1926 134 2118 122 
L 2349 102 
L 2349 0 
L 499 0 
L 499 102 
Q 826 122 963 221 
Q 1101 320 1184 621 
L 1562 1933 
L 1075 3642 
Q 1005 3898 925 3968 
Q 845 4038 582 4077 
L 582 4179 
L 2112 4179 
L 2112 4077 
Q 1830 4051 1740 4003 
Q 1651 3955 1651 3846 
Q 1651 3738 1882 2925 
L 2080 2221 
L 2330 2515 
Q 3283 3642 3283 3878 
Q 3283 4032 3027 4058 
L 2842 4077 
L 2842 4179 
L 4051 4179 
z
" transform="scale(0.015625)"/>
    </defs>
    <use xlink:href="#STIXGeneral-Italic-59" transform="translate(0 0.703125)"/>
   </g>
  </g>
 </g>
</svg>
