<?xml version="1.0" encoding="utf-8" standalone="no"?>
<!DOCTYPE svg PUBLIC "-//W3C//DTD SVG 1.1//EN"
  "http://www.w3.org/Graphics/SVG/1.1/DTD/svg11.dtd">
<svg xmlns:xlink="http://www.w3.org/1999/xlink" width="145.48pt" height="30.78pt" viewBox="0 0 145.48 30.78" xmlns="http://www.w3.org/2000/svg" version="1.1">
 <metadata>
  <rdf:RDF xmlns:dc="http://purl.org/dc/elements/1.1/" xmlns:cc="http://creativecommons.org/ns#" xmlns:rdf="http://www.w3.org/1999/02/22-rdf-syntax-ns#">
   <cc:Work>
    <dc:type rdf:resource="http://purl.org/dc/dcmitype/StillImage"/>
    <dc:date>2026-07-02T10:38:52.508709</dc:date>
    <dc:format>image/svg+xml</dc:format>
    <dc:creator>
     <cc:Agent>
      <dc:title>Matplotlib v3.10.7, https://matplotlib.org/</dc:title>
     </cc:Agent>
    </dc:creator>
   </cc:Work>
  </rdf:RDF>
 </metadata>
 <defs>
  <style type="text/css">*{stroke-linejoin: round; stroke-linecap: butt}</style>
 </defs>
 <g id="figure_1">
  <g id="patch_1">
   <path d="M 0 30.78 
L 145.48 30.78 
L 145.48 -0 
L 0 -0 
L 0 30.78 
z
" style="fill: none"/>
  </g>
  <g id="text_1">
   <!-- $\nu=3/2,\;5/2$ -->
   <g style="fill: #1f2933" transform="translate(1.44 22.612031) scale(0.31 -0.31)">
    <defs>
     <path id="STIXGeneral-Italic-3bd" d="M 2835 2778 
L 2938 2752 
Q 2867 2342 2752 1971 
Q 2637 1600 2422 1216 
Q 2208 832 1929 553 
Q 1651 275 1232 89 
Q 813 -96 307 -115 
Q 128 -115 128 26 
Q 128 64 147 109 
L 736 2240 
Q 749 2304 749 2349 
Q 749 2451 653 2483 
Q 557 2515 333 2522 
L 333 2624 
L 1376 2822 
L 1395 2810 
L 723 390 
Q 2208 531 2835 2778 
z
" transform="scale(0.015625)"/>
     <path id="STIXGeneral-Regular-3d" d="M 4077 2048 
L 307 2048 
L 307 2470 
L 4077 2470 
L 4077 2048 
z
M 4077 768 
L 307 768 
L 307 1190 
L 4077 1190 
L 4077 768 
z
" transform="scale(0.015625)"/>
     <path id="STIXGeneral-Regular-33" d="M 390 3264 
L 288 3290 
Q 435 3770 748 4048 
Q 1062 4326 1542 4326 
Q 1990 4326 2265 4083 
Q 2541 3840 2541 3450 
Q 2541 2925 1946 2566 
Q 2298 2413 2477 2227 
Q 2758 1914 2758 1402 
Q 2758 890 2464 506 
Q 2246 211 1840 60 
Q 1434 -90 979 -90 
Q 262 -90 262 275 
Q 262 378 339 442 
Q 416 506 525 506 
Q 685 506 915 339 
Q 1197 141 1466 141 
Q 1818 141 2058 425 
Q 2298 710 2298 1120 
Q 2298 1856 1632 2048 
Q 1434 2112 979 2112 
L 979 2202 
Q 1338 2323 1517 2432 
Q 2035 2726 2035 3290 
Q 2035 3610 1852 3776 
Q 1670 3942 1344 3942 
Q 768 3942 390 3264 
z
" transform="scale(0.015625)"/>
     <path id="STIXGeneral-Regular-2f" d="M 1837 4326 
L 378 -90 
L -58 -90 
L 1408 4326 
L 1837 4326 
z
" transform="scale(0.015625)"/>
     <path id="STIXGeneral-Regular-32" d="M 3034 877 
L 2688 0 
L 186 0 
L 186 77 
L 1325 1286 
Q 1773 1754 1965 2144 
Q 2157 2534 2157 2950 
Q 2157 3379 1920 3616 
Q 1683 3853 1267 3853 
Q 922 3853 720 3673 
Q 518 3494 326 3021 
L 192 3053 
Q 301 3648 630 3987 
Q 960 4326 1523 4326 
Q 2054 4326 2380 4006 
Q 2707 3686 2707 3200 
Q 2707 2477 1888 1613 
L 832 486 
L 2330 486 
Q 2541 486 2665 569 
Q 2790 653 2944 915 
L 3034 877 
z
" transform="scale(0.015625)"/>
     <path id="STIXGeneral-Regular-2c" d="M 531 -902 
L 467 -781 
Q 998 -422 998 -96 
Q 998 -13 909 -13 
Q 883 -13 822 -25 
Q 762 -38 723 -38 
Q 352 -38 352 288 
Q 352 454 457 553 
Q 563 653 736 653 
Q 954 653 1101 496 
Q 1248 339 1248 96 
Q 1248 -198 1053 -473 
Q 858 -749 531 -902 
z
" transform="scale(0.015625)"/>
     <path id="STIXGeneral-Regular-35" d="M 2803 4358 
L 2573 3814 
Q 2534 3731 2400 3731 
L 1158 3731 
L 902 3187 
Q 1606 3053 1920 2896 
Q 2234 2739 2502 2368 
Q 2726 2061 2726 1555 
Q 2726 1094 2576 780 
Q 2426 467 2099 224 
Q 1664 -90 1011 -90 
Q 646 -90 422 19 
Q 198 128 198 307 
Q 198 550 486 550 
Q 717 550 960 352 
Q 1210 147 1414 147 
Q 1747 147 2012 480 
Q 2278 813 2278 1229 
Q 2278 1843 1850 2189 
Q 1293 2637 486 2637 
Q 410 2637 410 2688 
L 416 2720 
L 1114 4237 
L 2438 4237 
Q 2547 4237 2608 4269 
Q 2669 4301 2746 4403 
L 2803 4358 
z
" transform="scale(0.015625)"/>
    </defs>
    <use xlink:href="#STIXGeneral-Italic-3bd" transform="translate(0 0.203125)"/>
    <use xlink:href="#STIXGeneral-Regular-3d" transform="translate(61.439981 0.203125)"/>
    <use xlink:href="#STIXGeneral-Regular-33" transform="translate(144.379962 0.203125)"/>
    <use xlink:href="#STIXGeneral-Regular-2f" transform="translate(194.379947 0.203125)"/>
    <use xlink:href="#STIXGeneral-Regular-32" transform="translate(222.179935 0.203125)"/>
    <use xlink:href="#STIXGeneral-Regular-2c" transform="translate(272.179919 0.203125)"/>
    <use xlink:href="#STIXGeneral-Regular-35" transform="translate(331.675611 0.203125)"/>
    <use xlink:href="#STIXGeneral-Regular-2f" transform="translate(381.675596 0.203125)"/>
    <use xlink:href="#STIXGeneral-Regular-32" transform="translate(409.475584 0.203125)"/>
   </g>
  </g>
 </g>
</svg>
